<svg version="1.1" xmlns="http://www.w3.org/2000/svg" viewBox="0 0 495 117">
	<style type="text/css">
		.logotype-yellow{
			fill: #ffff00;
		}
	</style>
	<g>
		<g>
			<path d="M290.8,51.5V39.3c0-0.3,0-0.6,0-0.8c0-0.3,0-1.5,0.1-3.5c-0.7,2.6-1.2,4.3-1.5,5.3l-3.6,11.2h-3l-3.6-11.2l-1.5-5.3     c0.1,2.2,0.2,3.7,0.2,4.4v12.2h-3.7V31.4h5.6l3.6,11.2l0.3,1.1l0.7,2.7l0.9-3.2l3.7-11.8h5.6v20.1H290.8z"/>
			<path d="M300.2,57.5c-1,0-1.8-0.1-2.5-0.2v-2.8c0.5,0.1,1,0.1,1.4,0.1c0.6,0,1-0.1,1.4-0.3c0.4-0.2,0.7-0.5,1-0.9     c0.3-0.4,0.6-1.1,1-2.1L296.4,36h4.2l2.4,7.2c0.4,1,0.9,2.6,1.4,4.8l0.4-1.4l0.9-3.3l2.3-7.3h4.2l-6.1,16.2     c-0.8,2-1.7,3.3-2.5,4.1C302.7,57.1,301.6,57.5,300.2,57.5z"/>
			<path d="M324.2,51.5v-8.6c0-2.7-0.9-4.1-2.8-4.1c-1,0-1.8,0.4-2.3,1.2c-0.6,0.8-0.9,1.9-0.9,3.2v8.3h-4v-12c0-0.8,0-1.5,0-2     c0-0.5,0-1-0.1-1.4h3.8c0,0.2,0.1,0.7,0.1,1.4c0,0.8,0.1,1.3,0.1,1.6h0.1c0.5-1.2,1.2-2,2-2.6c0.8-0.5,1.8-0.8,2.9-0.8     c1.6,0,2.9,0.5,3.8,1.5c0.9,1,1.3,2.5,1.3,4.4v9.8H324.2z"/>
			<path d="M341.7,51.5c0-0.1-0.1-0.5-0.1-1.1c-0.1-0.6-0.1-1.1-0.1-1.4h-0.1c-0.9,1.9-2.5,2.8-4.9,2.8c-1.8,0-3.2-0.7-4.2-2.1     c-1-1.4-1.5-3.4-1.5-5.9c0-2.6,0.5-4.5,1.5-5.9c1-1.4,2.5-2.1,4.4-2.1c1.1,0,2,0.2,2.8,0.7c0.8,0.5,1.4,1.1,1.8,2h0l0-2.5v-5.6h4     v17.8c0,0.9,0,2.1,0.1,3.4H341.7z M341.6,43.7c0-1.7-0.3-2.9-0.8-3.8s-1.4-1.3-2.5-1.3c-1.1,0-1.9,0.4-2.4,1.3     c-0.5,0.9-0.8,2.2-0.8,4c0,3.5,1,5.2,3.1,5.2c1.1,0,1.9-0.5,2.5-1.4C341.3,46.7,341.6,45.4,341.6,43.7z"/>
			<path d="M349.3,33.3v-2.9h4v2.9H349.3z M349.3,51.5V36h4v15.4H349.3z"/>
			<path d="M363.6,57.6c-1.9,0-3.4-0.4-4.5-1.1c-1.1-0.7-1.9-1.7-2.1-3.1l4-0.5c0.1,0.6,0.4,1.1,0.9,1.5c0.5,0.4,1.1,0.5,1.8,0.5     c1.1,0,1.9-0.3,2.4-1c0.5-0.7,0.8-1.7,0.8-3v-0.8l0-1.5h0c-0.9,1.9-2.5,2.8-5,2.8c-1.8,0-3.2-0.7-4.2-2c-1-1.3-1.5-3.3-1.5-5.8     c0-2.5,0.5-4.5,1.5-5.8c1-1.4,2.5-2.1,4.4-2.1c2.2,0,3.8,0.9,4.7,2.8h0.1c0-0.3,0-0.8,0.1-1.4s0.1-0.9,0.1-1.1h3.8     c-0.1,1-0.1,2.2-0.1,3.6V51c0,2.2-0.6,3.9-1.9,5C367.8,57.1,366,57.6,363.6,57.6z M367,43.5c0-1.6-0.3-2.8-0.8-3.7     c-0.6-0.9-1.4-1.3-2.4-1.3c-2.1,0-3.2,1.7-3.2,5.1c0,3.4,1.1,5,3.2,5c1.1,0,1.9-0.4,2.4-1.3C366.7,46.4,367,45.2,367,43.5z"/>
			<path d="M378.7,39.1c0.5-1.2,1.2-2,2-2.6c0.8-0.5,1.8-0.8,2.9-0.8c1.6,0,2.9,0.5,3.8,1.5c0.9,1,1.3,2.5,1.3,4.4v9.8h-4v-8.6     c0-2.7-0.9-4.1-2.8-4.1c-1,0-1.8,0.4-2.3,1.2c-0.6,0.8-0.9,1.9-0.9,3.2v8.3h-4V30.3h4v5.8C378.7,37.1,378.7,38.1,378.7,39.1     L378.7,39.1z"/>
			<path d="M398.6,51.7c-2.3,0-4.1-0.7-5.3-2.1c-1.2-1.4-1.9-3.4-1.9-6c0-2.5,0.6-4.5,1.9-5.9c1.3-1.4,3.1-2.1,5.4-2.1     c2.2,0,3.9,0.7,5.1,2.2s1.8,3.6,1.8,6.4v0.1h-9.9c0,1.5,0.3,2.6,0.8,3.4c0.6,0.8,1.3,1.1,2.4,1.1c1.4,0,2.3-0.6,2.7-1.8l3.8,0.3     C404.2,50.3,401.9,51.7,398.6,51.7z M398.6,38.3c-0.9,0-1.7,0.3-2.2,1c-0.5,0.7-0.8,1.6-0.8,2.8h6c-0.1-1.2-0.4-2.2-0.9-2.8     C400.2,38.6,399.5,38.3,398.6,38.3z"/>
			<path d="M412.2,51.7c-1.2,0-2.1-0.3-2.7-1c-0.6-0.6-1-1.6-1-2.9v-9.1h-2V36h2.2l1.3-3.6h2.5V36h2.9v2.7h-2.9v8     c0,0.8,0.1,1.3,0.4,1.7c0.3,0.4,0.7,0.5,1.3,0.5c0.3,0,0.8-0.1,1.3-0.2v2.5C414.6,51.6,413.5,51.7,412.2,51.7z"/>
			<path d="M424,51.7c-2.3,0-4.1-0.7-5.3-2.1c-1.2-1.4-1.9-3.4-1.9-6c0-2.5,0.6-4.5,1.9-5.9c1.3-1.4,3.1-2.1,5.4-2.1     c2.2,0,3.9,0.7,5.1,2.2s1.8,3.6,1.8,6.4v0.1H421c0,1.5,0.3,2.6,0.8,3.4c0.6,0.8,1.3,1.1,2.4,1.1c1.4,0,2.3-0.6,2.7-1.8l3.8,0.3     C429.6,50.3,427.4,51.7,424,51.7z M424,38.3c-0.9,0-1.7,0.3-2.2,1c-0.5,0.7-0.8,1.6-0.8,2.8h6c-0.1-1.2-0.4-2.2-0.9-2.8     C425.6,38.6,424.9,38.3,424,38.3z"/>
			<path d="M443.7,51.5v-8.6c0-2.7-0.9-4.1-2.8-4.1c-1,0-1.8,0.4-2.3,1.2c-0.6,0.8-0.9,1.9-0.9,3.2v8.3h-4v-12c0-0.8,0-1.5,0-2     c0-0.5,0-1-0.1-1.4h3.8c0,0.2,0.1,0.7,0.1,1.4c0,0.8,0.1,1.3,0.1,1.6h0.1c0.5-1.2,1.2-2,2-2.6c0.8-0.5,1.8-0.8,2.9-0.8     c1.6,0,2.9,0.5,3.8,1.5c0.9,1,1.3,2.5,1.3,4.4v9.8H443.7z"/>
			<path d="M463.8,38.7v12.7h-4V38.7h-2.3V36h2.3v-1.6c0-1.4,0.4-2.4,1.1-3.1c0.7-0.7,1.9-1,3.4-1c0.8,0,1.6,0.1,2.5,0.2v2.6     c-0.4-0.1-0.8-0.1-1.2-0.1c-0.7,0-1.2,0.1-1.4,0.4c-0.3,0.3-0.4,0.7-0.4,1.4V36h3v2.7H463.8z"/>
			<path d="M483.2,43.7c0,2.5-0.7,4.5-2.1,5.9c-1.4,1.4-3.3,2.1-5.8,2.1c-2.4,0-4.3-0.7-5.7-2.1c-1.4-1.4-2.1-3.4-2.1-5.9     c0-2.5,0.7-4.4,2.1-5.8c1.4-1.4,3.3-2.1,5.7-2.1c2.5,0,4.4,0.7,5.8,2.1C482.5,39.2,483.2,41.2,483.2,43.7z M470.8,34.4v-3.1h3v3.1     H470.8z M479,43.7c0-1.8-0.3-3.2-0.9-4s-1.5-1.2-2.6-1.2c-2.4,0-3.6,1.7-3.6,5.2c0,1.7,0.3,3,0.9,3.9c0.6,0.9,1.5,1.3,2.6,1.3     C477.8,49,479,47.3,479,43.7z M477,34.4v-3.1h3.1v3.1H477z"/>
			<path d="M486.1,51.5V39.7c0-0.8,0-1.6,0-2.1c0-0.6,0-1.1-0.1-1.5h3.8c0,0.2,0.1,0.7,0.1,1.6c0,0.9,0.1,1.4,0.1,1.7h0.1     c0.4-1.1,0.7-1.8,1-2.3c0.3-0.4,0.7-0.8,1.1-1c0.4-0.2,0.9-0.3,1.6-0.3c0.5,0,0.9,0.1,1.2,0.2v3.3c-0.6-0.1-1.2-0.2-1.7-0.2     c-1,0-1.8,0.4-2.3,1.2c-0.6,0.8-0.8,2-0.8,3.6v7.6H486.1z"/>
			<path d="M276.2,87.1c-1,0-1.8-0.1-2.5-0.2V84c0.5,0.1,1,0.1,1.4,0.1c0.6,0,1-0.1,1.4-0.3c0.4-0.2,0.7-0.5,1-0.9     c0.3-0.4,0.6-1.1,1-2.1l-6.1-15.3h4.2l2.4,7.2c0.4,1,0.9,2.6,1.4,4.8l0.4-1.4l0.9-3.3l2.3-7.3h4.2l-6.1,16.2     c-0.8,2-1.7,3.3-2.5,4.1C278.7,86.7,277.6,87.1,276.2,87.1z"/>
			<path d="M290.1,81V69.2c0-0.8,0-1.6,0-2.1c0-0.6,0-1.1-0.1-1.5h3.8c0,0.2,0.1,0.7,0.1,1.6c0,0.9,0.1,1.4,0.1,1.7h0.1     c0.4-1.1,0.7-1.8,1-2.3c0.3-0.4,0.7-0.8,1.1-1c0.4-0.2,0.9-0.3,1.6-0.3c0.5,0,0.9,0.1,1.2,0.2v3.3c-0.6-0.1-1.2-0.2-1.7-0.2     c-1,0-1.8,0.4-2.3,1.2c-0.6,0.8-0.8,2-0.8,3.6V81H290.1z"/>
			<path d="M311.1,81l-4.1-7l-1.7,1.2V81h-4V59.9h4V72l5.5-6.4h4.3l-5.4,6l5.8,9.4H311.1z"/>
			<path d="M323.5,81.3c-2.3,0-4.1-0.7-5.3-2.1c-1.2-1.4-1.9-3.4-1.9-6c0-2.5,0.6-4.5,1.9-5.9c1.3-1.4,3.1-2.1,5.4-2.1     c2.2,0,3.9,0.7,5.1,2.2s1.8,3.6,1.8,6.4v0.1h-9.9c0,1.5,0.3,2.6,0.8,3.4c0.6,0.8,1.3,1.1,2.4,1.1c1.4,0,2.3-0.6,2.7-1.8l3.8,0.3     C329.1,79.9,326.9,81.3,323.5,81.3z M323.5,67.8c-0.9,0-1.7,0.3-2.2,1c-0.5,0.7-0.8,1.6-0.8,2.8h6c-0.1-1.2-0.4-2.2-0.9-2.8     C325.1,68.2,324.4,67.8,323.5,67.8z"/>
			<path d="M346.2,76.5c0,1.5-0.6,2.7-1.8,3.5c-1.2,0.9-2.9,1.3-5.1,1.3c-2.1,0-3.7-0.3-4.9-1c-1.1-0.7-1.9-1.7-2.2-3.1l3.5-0.5     c0.2,0.7,0.5,1.2,1,1.6c0.5,0.3,1.3,0.5,2.6,0.5c1.1,0,1.9-0.1,2.5-0.4c0.5-0.3,0.8-0.7,0.8-1.3c0-0.5-0.2-0.9-0.6-1.2     c-0.4-0.3-1.1-0.5-2.1-0.7c-2.3-0.4-3.8-0.9-4.6-1.2c-0.8-0.4-1.4-0.9-1.8-1.5c-0.4-0.6-0.6-1.4-0.6-2.3c0-1.5,0.6-2.6,1.7-3.4     c1.1-0.8,2.7-1.2,4.8-1.2c1.8,0,3.3,0.4,4.4,1.1c1.1,0.7,1.8,1.7,2.1,3.1l-3.5,0.4c-0.1-0.6-0.4-1.1-0.8-1.4     c-0.4-0.3-1.2-0.5-2.1-0.5c-1,0-1.7,0.1-2.1,0.4c-0.5,0.2-0.7,0.6-0.7,1.2c0,0.4,0.2,0.8,0.5,1.1c0.4,0.3,1,0.5,1.8,0.6     c1.2,0.2,2.3,0.5,3.2,0.8c0.9,0.3,1.7,0.6,2.3,0.9c0.6,0.4,1,0.8,1.4,1.4C346,74.9,346.2,75.6,346.2,76.5z"/>
			<path d="M353.1,68.7c0.5-1.2,1.2-2,2-2.6c0.8-0.5,1.8-0.8,2.9-0.8c1.6,0,2.9,0.5,3.8,1.5c0.9,1,1.3,2.5,1.3,4.4V81h-4v-8.6     c0-2.7-0.9-4.1-2.8-4.1c-1,0-1.8,0.4-2.3,1.2c-0.6,0.8-0.9,1.9-0.9,3.2V81h-4V59.9h4v5.8C353.1,66.7,353.1,67.7,353.1,68.7     L353.1,68.7z"/>
			<path d="M381.3,73.3c0,2.5-0.7,4.5-2.1,5.9c-1.4,1.4-3.3,2.1-5.8,2.1c-2.4,0-4.3-0.7-5.7-2.1c-1.4-1.4-2.1-3.4-2.1-5.9     c0-2.5,0.7-4.4,2.1-5.8c1.4-1.4,3.3-2.1,5.7-2.1c2.5,0,4.4,0.7,5.8,2.1C380.7,68.8,381.3,70.7,381.3,73.3z M368.9,63.9v-3.1h3v3.1     H368.9z M377.2,73.3c0-1.8-0.3-3.2-0.9-4c-0.6-0.8-1.5-1.2-2.6-1.2c-2.4,0-3.6,1.7-3.6,5.2c0,1.7,0.3,3,0.9,3.9     c0.6,0.9,1.5,1.3,2.6,1.3C375.9,78.6,377.2,76.8,377.2,73.3z M375.1,63.9v-3.1h3.1v3.1H375.1z"/>
			<path d="M390.7,87.2c-1.9,0-3.4-0.4-4.5-1.1c-1.1-0.7-1.9-1.7-2.1-3.1l4-0.5c0.1,0.6,0.4,1.1,0.9,1.5c0.5,0.4,1.1,0.5,1.8,0.5     c1.1,0,1.9-0.3,2.4-1c0.5-0.7,0.8-1.7,0.8-3v-0.8l0-1.5h0c-0.9,1.9-2.5,2.8-5,2.8c-1.8,0-3.2-0.7-4.2-2c-1-1.3-1.5-3.3-1.5-5.8     c0-2.5,0.5-4.5,1.5-5.8c1-1.4,2.5-2.1,4.4-2.1c2.2,0,3.8,0.9,4.7,2.8h0.1c0-0.3,0-0.8,0.1-1.4c0-0.6,0.1-0.9,0.1-1.1h3.8     c-0.1,1-0.1,2.2-0.1,3.6v11.4c0,2.2-0.6,3.9-1.9,5C394.9,86.6,393.1,87.2,390.7,87.2z M394.1,73.1c0-1.6-0.3-2.8-0.8-3.7     c-0.6-0.9-1.4-1.3-2.4-1.3c-2.1,0-3.2,1.7-3.2,5.1c0,3.4,1.1,5,3.2,5c1.1,0,1.9-0.4,2.4-1.3C393.8,76,394.1,74.7,394.1,73.1z"/>
			<path d="M414.8,76.5c0,1.5-0.6,2.7-1.8,3.5c-1.2,0.9-2.9,1.3-5.1,1.3c-2.1,0-3.7-0.3-4.9-1c-1.1-0.7-1.9-1.7-2.2-3.1l3.5-0.5     c0.2,0.7,0.5,1.2,1,1.6c0.5,0.3,1.3,0.5,2.6,0.5c1.1,0,1.9-0.1,2.5-0.4c0.5-0.3,0.8-0.7,0.8-1.3c0-0.5-0.2-0.9-0.6-1.2     c-0.4-0.3-1.1-0.5-2.1-0.7c-2.3-0.4-3.8-0.9-4.6-1.2c-0.8-0.4-1.4-0.9-1.8-1.5c-0.4-0.6-0.6-1.4-0.6-2.3c0-1.5,0.6-2.6,1.7-3.4     c1.1-0.8,2.7-1.2,4.8-1.2c1.8,0,3.3,0.4,4.4,1.1c1.1,0.7,1.8,1.7,2.1,3.1l-3.5,0.4c-0.1-0.6-0.4-1.1-0.8-1.4     c-0.4-0.3-1.2-0.5-2.1-0.5c-1,0-1.7,0.1-2.1,0.4c-0.5,0.2-0.7,0.6-0.7,1.2c0,0.4,0.2,0.8,0.5,1.1c0.4,0.3,1,0.5,1.8,0.6     c1.2,0.2,2.3,0.5,3.2,0.8c0.9,0.3,1.7,0.6,2.3,0.9c0.6,0.4,1,0.8,1.4,1.4C414.6,74.9,414.8,75.6,414.8,76.5z"/>
			<path d="M427.6,81l-4.1-7l-1.7,1.2V81h-4V59.9h4V72l5.5-6.4h4.3l-5.4,6L432,81H427.6z"/>
			<path d="M448.4,73.3c0,2.5-0.7,4.5-2.1,5.9c-1.4,1.4-3.3,2.1-5.8,2.1c-2.4,0-4.3-0.7-5.7-2.1c-1.4-1.4-2.1-3.4-2.1-5.9     c0-2.5,0.7-4.4,2.1-5.8c1.4-1.4,3.3-2.1,5.7-2.1c2.5,0,4.4,0.7,5.8,2.1C447.7,68.8,448.4,70.7,448.4,73.3z M444.2,73.3     c0-1.8-0.3-3.2-0.9-4c-0.6-0.8-1.5-1.2-2.6-1.2c-2.4,0-3.6,1.7-3.6,5.2c0,1.7,0.3,3,0.9,3.9c0.6,0.9,1.5,1.3,2.6,1.3     C443,78.6,444.2,76.8,444.2,73.3z"/>
			<path d="M451.3,81V59.9h4V81H451.3z"/>
			<path d="M462.7,81.3c-1.5,0-2.7-0.4-3.5-1.2c-0.8-0.8-1.3-2-1.3-3.4c0-1.6,0.5-2.8,1.6-3.6c1-0.8,2.5-1.3,4.5-1.3l3.3-0.1v-0.8     c0-1-0.2-1.8-0.5-2.2c-0.4-0.5-0.9-0.7-1.7-0.7c-0.7,0-1.3,0.2-1.6,0.5c-0.3,0.3-0.6,0.9-0.6,1.7l-4.2-0.2     c0.3-1.5,0.9-2.6,2.1-3.4c1.1-0.8,2.6-1.2,4.6-1.2c1.9,0,3.4,0.5,4.5,1.4c1.1,1,1.6,2.3,1.6,4.1v5.6c0,0.9,0.1,1.5,0.3,1.8     c0.2,0.3,0.5,0.5,1,0.5c0.3,0,0.6,0,0.9-0.1v2.2c-0.2,0.1-0.5,0.1-0.6,0.2c-0.2,0-0.4,0.1-0.6,0.1c-0.2,0-0.4,0.1-0.6,0.1     c-0.2,0-0.5,0-0.7,0c-1,0-1.8-0.2-2.2-0.7c-0.5-0.5-0.8-1.2-0.9-2.2h-0.1C466.7,80.3,465,81.3,462.7,81.3z M467.4,73.9l-2.1,0     c-0.9,0-1.6,0.1-2,0.3c-0.4,0.2-0.7,0.4-0.9,0.8c-0.2,0.3-0.3,0.8-0.3,1.4c0,0.7,0.2,1.3,0.5,1.6c0.3,0.4,0.8,0.5,1.3,0.5     c0.6,0,1.2-0.2,1.7-0.5c0.5-0.3,0.9-0.8,1.2-1.4c0.3-0.6,0.4-1.2,0.4-1.9V73.9z"/>
			<path d="M485.1,81v-8.6c0-2.7-0.9-4.1-2.8-4.1c-1,0-1.8,0.4-2.3,1.2c-0.6,0.8-0.9,1.9-0.9,3.2V81h-4v-12c0-0.8,0-1.5,0-2     c0-0.5,0-1-0.1-1.4h3.8c0,0.2,0.1,0.7,0.1,1.4c0,0.8,0.1,1.3,0.1,1.6h0.1c0.5-1.2,1.2-2,2-2.6c0.8-0.5,1.8-0.8,2.9-0.8     c1.6,0,2.9,0.5,3.8,1.5c0.9,1,1.3,2.5,1.3,4.4V81H485.1z"/>
		</g>
		<g>
			<g>
				<rect x="142.4" class="logotype-yellow" width="117" height="117"/>
				<g>
					<path d="M188.9,60.2v21.2h-11.3V60.2l-19.2-30.5h11.8l12.9,21.8l13.1-21.8h11.8L188.9,60.2z"/>
					<path d="M218.9,51.3c1.3-2.9,3-5,5-6.3c2-1.3,4.4-1.9,7.1-1.9c4,0,7.1,1.2,9.2,3.7c2.1,2.5,3.2,6.1,3.2,10.8v23.9h-9.7V60.3       c0-6.6-2.2-9.9-6.7-9.9c-2.4,0-4.3,1-5.7,3c-1.5,2-2.2,4.6-2.2,7.8v20.2h-9.8V29.8h9.8v14.1c0,2.5-0.1,5-0.3,7.4H218.9z"/>
				</g>
			</g>
			<g>
				<path d="M104.8,117V46.1c0-1.6,0-3.2,0-4.8c0-1.6,0.3-8.5,0.9-20.7c-4.2,14.9-7.4,25.3-9.4,31.1L73.5,117H54.7L32,51.7l-9.6-31.1      c0.7,12.8,1.1,21.3,1.1,25.5V117H0V0h35.4l22.6,65.4l2,6.3l4.3,15.7l5.6-18.8L93,0h35.2v117H104.8z"/>
			</g>
		</g>
	</g>
</svg>