<?xml version="1.0" standalone="no"?>
<!DOCTYPE svg PUBLIC "-//W3C//DTD SVG 20010904//EN"
 "http://www.w3.org/TR/2001/REC-SVG-20010904/DTD/svg10.dtd">
<svg version="1.0" xmlns="http://www.w3.org/2000/svg"
 width="584.000000pt" height="329.000000pt" viewBox="0 0 584.000000 329.000000"
 preserveAspectRatio="xMidYMid meet">

<g transform="translate(0.000000,329.000000) scale(0.100000,-0.100000)"
fill="#000000" stroke="none">
<path d="M5055 2733 c-18 -17 -119 -222 -171 -345 -28 -66 -22 -93 27 -122 54
-32 69 -19 147 126 99 187 135 274 123 296 -28 52 -95 76 -126 45z"/>
<path d="M5223 2638 c-24 -34 -174 -360 -176 -384 -2 -23 6 -32 50 -58 29 -17
57 -36 64 -43 8 -8 -44 -84 -211 -305 -123 -161 -229 -299 -236 -307 -10 -11
-18 -5 -49 38 -20 28 -44 51 -52 51 -11 0 -317 -227 -372 -276 -20 -18 1 -72
51 -128 l40 -46 -36 -40 c-41 -46 -41 -46 -20 -137 11 -45 15 -98 12 -158 -3
-77 -8 -98 -31 -138 -42 -72 -94 -101 -185 -106 -41 -2 -92 2 -113 8 l-39 12
28 41 c22 34 27 53 27 106 0 60 -2 65 -34 94 -28 25 -40 29 -69 25 -84 -14
-127 -117 -88 -212 15 -34 15 -35 -12 -41 -64 -13 -62 -13 -52 6 25 48 4 147
-41 189 -86 80 -191 -73 -130 -192 l19 -37 -28 0 c-16 0 -40 4 -55 10 l-26 10
22 30 c27 36 37 126 19 170 -14 33 -55 60 -92 60 -35 0 -68 -27 -89 -74 -26
-57 -24 -106 5 -149 l24 -35 -30 -6 c-35 -7 -78 -8 -78 -2 0 2 11 24 25 47 49
86 28 175 -49 204 -58 22 -93 11 -126 -39 -23 -36 -24 -37 -33 -14 -15 42 -38
58 -82 58 -52 0 -90 -28 -115 -84 -15 -32 -19 -36 -19 -18 -1 13 -12 34 -26
47 -47 47 -135 22 -168 -48 -22 -46 -21 -84 3 -129 11 -20 16 -39 12 -41 -14
-9 -92 -19 -92 -12 0 4 10 21 23 38 62 88 -6 236 -94 205 -57 -20 -99 -117
-80 -185 6 -20 8 -39 5 -42 -3 -3 -45 -5 -92 -4 -143 2 -227 41 -279 130 -23
40 -28 61 -31 138 -3 80 -1 95 20 135 14 25 40 54 59 65 33 20 53 20 982 23
l947 3 0 610 0 609 -844 0 -845 0 -162 -212 c-336 -440 -562 -719 -674 -834
-71 -72 -164 -123 -287 -156 -119 -32 -326 -32 -412 0 -220 81 -337 267 -323
512 9 151 54 257 151 348 100 95 233 139 380 128 197 -16 337 -109 397 -263
29 -76 32 -223 6 -300 -35 -101 -107 -173 -174 -173 -30 0 -33 3 -33 29 0 16
27 140 60 276 33 136 60 249 60 251 0 2 -32 4 -70 4 -76 0 -69 5 -95 -68 -3
-9 -16 -2 -39 22 -46 49 -98 69 -176 69 -114 -2 -205 -51 -279 -150 -129 -175
-126 -407 8 -524 97 -86 237 -90 322 -9 39 37 39 37 45 13 4 -13 20 -33 37
-45 95 -68 308 28 407 182 207 323 37 711 -354 810 -334 84 -683 -102 -793
-425 -25 -70 -28 -95 -28 -205 0 -102 4 -138 22 -195 63 -198 213 -349 418
-422 77 -27 88 -28 255 -27 147 0 188 4 255 22 164 45 297 132 406 268 31 38
203 257 383 487 180 229 329 417 331 417 1 0 175 -117 385 -260 210 -143 386
-260 391 -260 4 0 149 96 321 213 172 117 341 232 376 255 l62 43 0 -465 0
-465 -872 -3 -873 -3 -50 -23 c-68 -31 -108 -73 -141 -145 -35 -80 -38 -193
-5 -279 31 -81 98 -152 168 -178 81 -30 191 -42 273 -29 56 8 76 7 118 -6 46
-15 54 -15 108 0 53 15 233 27 349 23 55 -2 124 -2 160 1 17 1 53 -1 81 -4 36
-5 68 -2 109 10 56 16 59 16 106 -4 53 -23 97 -26 149 -10 19 6 49 10 67 10
17 -1 66 6 108 14 76 16 78 16 124 -7 39 -19 62 -23 151 -23 122 0 163 16 224
86 73 86 95 222 61 379 -14 69 -11 81 28 118 20 19 28 21 51 12 65 -24 178 -3
274 52 132 75 453 428 622 683 120 183 220 403 220 487 0 18 -10 49 -21 68
-29 47 -140 155 -197 191 -50 31 -74 36 -89 17z m-1393 -452 c-8 -7 -162 -113
-342 -235 l-328 -222 -327 222 c-181 122 -335 228 -343 235 -12 12 91 14 670
14 582 0 682 -2 670 -14z m-2793 -432 c81 -52 83 -186 6 -293 -77 -107 -207
-121 -263 -28 -14 22 -20 50 -20 92 0 168 164 304 277 229z m2871 -936 c7 -7
12 -31 12 -55 0 -33 -7 -50 -29 -75 l-28 -32 -17 32 c-22 43 -21 97 4 122 23
23 41 25 58 8z m-700 -14 c37 -26 24 -115 -23 -154 -13 -11 -18 -11 -31 2 -34
34 -35 138 -2 160 19 11 31 10 56 -8z m230 4 c17 -17 15 -100 -4 -126 -20 -29
-38 -28 -59 4 -38 58 18 167 63 122z m-432 -23 c13 -52 -17 -145 -47 -145 -47
0 -68 111 -29 150 29 29 68 26 76 -5z m648 -17 c24 -33 21 -101 -5 -124 -21
-19 -21 -18 -40 5 -21 26 -25 77 -7 116 14 31 32 32 52 3z m-871 -8 c8 -30
-10 -84 -34 -106 -21 -19 -21 -18 -40 5 -25 30 -24 62 2 95 25 32 64 35 72 6z
m-233 -16 c16 -42 11 -69 -18 -97 -15 -15 -31 -27 -34 -27 -12 0 -29 60 -23
82 20 66 58 88 75 42z m330 -118 c11 -14 6 -16 -38 -16 l-51 0 24 36 c14 20
25 49 26 63 0 18 4 12 13 -21 7 -26 18 -54 26 -62z m213 8 c14 -15 6 -24 -21
-24 -38 0 -43 7 -26 38 8 15 14 34 15 42 0 8 6 1 12 -17 7 -17 15 -35 20 -39z"/>
<path d="M4329 1681 c-197 -150 -213 -165 -204 -199 10 -42 33 -71 60 -78 20
-5 40 3 83 31 85 57 242 179 281 219 31 32 33 37 22 67 -6 18 -19 41 -28 51
-33 36 -64 23 -214 -91z"/>
</g>
</svg>
